<?xml version="1.0" encoding="UTF-8"?>
<svg width="24px" height="24px" viewBox="0 0 24 24" version="1.1" xmlns="http://www.w3.org/2000/svg" xmlns:xlink="http://www.w3.org/1999/xlink">
    <title>8E1C451D-A4AA-43B5-97E1-20FA07AE175C</title>
    <g id="Icons" stroke="none" stroke-width="1" fill="none" fill-rule="evenodd">
        <g id="YouTube_icon_F7801" fill="#757575" transform="translate(1.000000, 3.000000)">
            <path d="M10.9528016,0.000244460067 C10.9795733,0.00032061878 10.9935121,0.000385060768 10.9935121,0.000385060768 L11.4471065,0.00226347276 C13.0067744,0.0124605665 18.1328304,0.0780133116 19.583601,0.499423816 C20.5333995,0.780133116 21.2736835,1.60666605 21.5251008,2.65152845 C21.9580971,4.43880551 21.9966652,8.0288973 21.9997497,8.4574951 L21.9996537,8.59331408 C21.9976913,8.93863331 21.9846087,10.1895551 21.8973912,11.5209917 L21.8634277,11.9929102 C21.7951415,12.8592969 21.6927123,13.7187525 21.5390684,14.3477493 C21.2876512,15.3926117 20.4076908,16.2503345 19.4578924,16.5310438 C18.0522415,16.9393483 13.2805085,16.9927062 11.5918007,16.9986115 L11.3400018,16.999209 C11.2663215,16.9992969 11.2032626,16.999291 11.1519308,16.9992442 L10.9528016,16.9991255 C10.9394157,16.9991936 10.9228216,16.9992716 10.9031575,16.9993524 L10.2474994,16.99956 C8.44401663,16.9945428 3.89573683,16.9404116 2.52913178,16.5310438 C1.59330095,16.2503345 0.671437749,15.3926117 0.420020512,14.3477493 C0.0428946568,12.7910886 0.00237700291,9.86684008 0.000110281013,8.85493683 L0.000362139001,8.59296258 C0.000456585746,8.57272389 0.000558028547,8.55560836 0.000651309284,8.54178262 L0.000651309284,8.4574951 C0.000558028547,8.44366937 0.000456585746,8.42655384 0.000362139001,8.40631515 L0.000110281013,8.14434089 C0.00237700291,7.13243764 0.0428946568,4.20818911 0.420020512,2.65152845 C0.671437749,1.60666605 1.57933333,0.748943194 2.52913178,0.468233894 C3.85669097,0.0826130375 8.18671221,0.0135956683 10.0863314,0.00214256953 L10.5286742,0.000277413356 C10.5706868,0.000180018079 10.6101823,0.00011264691 10.6470224,6.87091904e-05 Z M9,5 L9,13 L15,9 L9,5 Z" id="Combined-Shape"></path>
        </g>
    </g>
</svg>